<?xml version="1.0" encoding="utf-8"?>
<!-- Generator: Adobe Illustrator 21.1.0, SVG Export Plug-In . SVG Version: 6.00 Build 0)  -->
<!DOCTYPE svg PUBLIC "-//W3C//DTD SVG 1.1//EN" "http://www.w3.org/Graphics/SVG/1.1/DTD/svg11.dtd">
<svg version="1.1" id="Layer_1" xmlns="http://www.w3.org/2000/svg" xmlns:xlink="http://www.w3.org/1999/xlink" x="0px" y="0px"
	 viewBox="0 0 841.89 595.28" style="enable-background:new 0 0 841.89 595.28;" xml:space="preserve">
<style type="text/css">
	.st0{fill:#FFFFFF;stroke:#000000;stroke-miterlimit:10;}
</style>
<rect id="margin-rect" x="28.35" y="28.35" class="st0" width="785.2" height="538.58"/>
<path class="st0" d="M149.68,199.26c8.95,9.2,13.46,20.73,10,29c-6.24,14.91-37.15,16.28-47,4c-8.57-10.68,0.05-30.1,4-39
	c12.26-27.62,30.49-30.26,32-48c1.56-18.42-16.11-38.92-26-37c-11.33,2.2-19.43,35.17-12,63c5.95,22.28,17.09,23.43,27,49
	c8.35,21.54,14.71,57.52-1,69c-11.11,8.12-33.54,4.21-37-6c-2.74-8.1,7.15-18.16,9-20"/>
<image style="overflow:visible;" width="248" height="190" xlink:href="Yuleblinker.png"  transform="matrix(1 0 0 1 355 104)">
</image>
</svg>
