<?xml version="1.0" encoding="UTF-8"?>
<!DOCTYPE svg PUBLIC "-//W3C//DTD SVG 1.1//EN" "http://www.w3.org/Graphics/SVG/1.1/DTD/svg11.dtd">
<svg xmlns="http://www.w3.org/2000/svg" xmlns:xlink="http://www.w3.org/1999/xlink" version="1.1" width="24" height="24" viewBox="0 0 24 24">
<path d="M 5,3 C 3.89,3 3,3.89 3,5 v 14 c 0,1.104569 0.8954305,2 2,2 h 14 c 1.104569,0 2,-0.895431 2,-2 V 5 C 21,3.89 20.1,3 19,3 Z M 5,5 H 19 V 19 H 5 Z m 2.5932203,1.7118644 c -0.4934951,0 -0.8813559,0.4177151 -0.8813559,0.8813559 V 16.40678 c 0,0.486758 0.3945965,0.881356 0.8813559,0.881356 H 16.40678 c 0.492886,0 0.881356,-0.394598 0.881356,-0.881356 V 7.5932203 c 0,-0.4639094 -0.394598,-0.8813559 -0.881356,-0.8813559 z"/>
</svg>