<?xml version="1.0" encoding="UTF-8"?>
<!DOCTYPE svg PUBLIC "-//W3C//DTD SVG 1.1//EN" "http://www.w3.org/Graphics/SVG/1.1/DTD/svg11.dtd">
<svg xmlns="http://www.w3.org/2000/svg" xmlns:xlink="http://www.w3.org/1999/xlink" version="1.1" width="24" height="24" viewBox="0 0 24 24">
<path d="M 5 3 C 3.89 3 3 3.89 3 5 L 3 19 C 3 20.104569 3.8954305 21 5 21 L 19 21 C 20.104569 21 21 20.104569 21 19 L 21 5 C 21 3.89 20.1 3 19 3 L 5 3 z M 5 5 L 19 5 L 19 19 L 5 19 L 5 5 z M 11.990234 8.9902344 A 3.0076602 3.0076602 0 0 0 8.9824219 11.998047 A 3.0076602 3.0076602 0 0 0 11.990234 15.005859 A 3.0076602 3.0076602 0 0 0 14.998047 11.998047 A 3.0076602 3.0076602 0 0 0 11.990234 8.9902344 z "/>
</svg>

