<?xml version="1.0" encoding="UTF-8"?><!DOCTYPE svg PUBLIC "-//W3C//DTD SVG 1.1//EN" "http://www.w3.org/Graphics/SVG/1.1/DTD/svg11.dtd"><svg xmlns="http://www.w3.org/2000/svg" xmlns:xlink="http://www.w3.org/1999/xlink" version="1.1" width="24" height="24" viewBox="0 0 24 24"><path d="M 5 3 C 3.89 3 3 3.89 3 5 L 3 19 A 2 2 0 0 0 5 21 L 19 21 A 2 2 0 0 0 21 19 L 21 5 C 21 3.89 20.1 3 19 3 L 5 3 z M 5 5 L 19 5 L 19 19 L 5 19 L 5 5 z M 9.5 9 C 9.2238576 9 9 9.2238576 9 9.5 L 9 14.5 C 9 14.776142 9.2238576 15 9.5 15 L 14.5 15 C 14.776142 15 15 14.776142 15 14.5 L 15 9.5 C 15 9.2238576 14.776142 9 14.5 9 L 9.5 9 z "/></svg>
