<?xml version="1.0" encoding="UTF-8"?>
<!DOCTYPE svg PUBLIC "-//W3C//DTD SVG 1.1//EN" "http://www.w3.org/Graphics/SVG/1.1/DTD/svg11.dtd">
<svg xmlns="http://www.w3.org/2000/svg" xmlns:xlink="http://www.w3.org/1999/xlink" version="1.1" width="24" height="24" viewBox="0 0 24 24">
<path d="m 15.449055,3.483508 c -1.379718,0 -2.497903,1.11889 -2.497903,2.498608 0,1.379747 1.118185,2.497903 2.497903,2.497903 1.379751,0 2.498612,-1.118156 2.498612,-2.497903 0,-1.379718 -1.118898,-2.498608 -2.498612,-2.498608 z M 9.2664624,5.041165 c -1.5813693,0 -2.8638258,1.28246 -2.8638258,2.863825 0,1.581406 1.2824565,2.863124 2.8638258,2.863124 1.5814056,0 2.8631236,-1.281718 2.8631236,-2.863124 0,-1.581365 -1.281755,-2.863825 -2.8631236,-2.863825 z m 4.1841296,4.438438 c -0.745879,-1.4e-5 -1.35223,0.48711 -1.81974,1.09778 h 0.977688 c 2.57125,-4.1e-5 3.857056,4.499897 3.857056,4.499897 l 0.359568,1.798547 c 0.458231,-0.07712 0.902629,-0.195685 1.324538,-0.360275 l -0.202035,-4.538046 c 0.333082,0.166554 0.999585,1.499025 0.999585,1.499025 0,0 0.332882,0.500039 0.499439,2.498609 l 1.499024,-0.500145 -0.500145,-2.497904 c 0,0 -0.998705,-3.49752 -2.997342,-3.497488 z M 6.9755421,11.913224 C 4.6848677,11.913188 3.5395125,15.92216 3.5395125,15.92216 l -0.5729055,2.863121 1.7180148,0.572907 c 0.1908986,-2.290674 0.5729055,-2.863122 0.5729055,-2.863122 0,0 0.7633484,-1.527117 1.1451093,-1.718017 l -0.2189909,4.955543 c 1.0182584,0.493739 2.1612808,0.770705 3.3689186,0.770705 0.9906977,0 1.9382207,-0.185989 2.8087297,-0.525578 l -0.231708,-5.20067 c 0.381762,0.1909 1.145815,1.718017 1.145815,1.718017 0,0 0.381301,0.572448 0.572201,2.863122 l 1.718014,-0.572907 -0.572905,-2.863121 c 0,0 -1.145284,-4.008972 -3.43603,-4.008936 z" />
</svg>